{"title":"The.Circus.1928.DVDRiP.XViD.OPTIONAL-SWESUB-Zen_Bud","uid":6029149,"size":1469322842,"categoryP":"video","categoryS":"movies","magnet":"?xt=urn:btih:7c484a2da6c69092b89ce2584dcfa892d8370e92&amp;dn=The.Circus.1928.DVDRiP.XViD.OPTIONAL-SWESUB-Zen_Bud&amp;tr=udp%3A%2F%2Ftracker.openbittorrent.com%3A80&amp;tr=udp%3A%2F%2Fopen.demonii.com%3A1337&amp;tr=udp%3A%2F%2Ftracker.coppersurfer.tk%3A6969&amp;tr=udp%3A%2F%2Fexodus.desync.com%3A6969","seeders":0,"leechers":1,"uploader":"Zen_Bud","files":-1,"time":1292012805,"description":"**** The.Circus.1928.DVDRiP.XViD.OPTIONAL-SWESUB-Zen_Bud ****\n\nFormat                           : AVI\n\nFile size                        : 1.37 GiB\nDuration                         : 1h 11mn\nOverall bit rate                 : 2 730 Kbps\n\nVideo\n\nFormat                           : MPEG-4 Visual\nCodec ID/Hint                    : XviD\nDuration                         : 1h 11mn\nBit rate                         : 2 589 Kbps\nWidth                            : 720 pixels\nHeight                           : 576 pixels\nDisplay aspect ratio             : 5:4\nStream size                      : 1.30 GiB (95%)\nWriting library                  : XviD 1.1.2 (UTC 2006-11-01)\n\nAudio\n\nFormat                           : MPEG Audio\nCodec ID/Hint                    : MP3\nDuration                         : 1h 11mn\nBit rate                         : 128 Kbps\nChannel(s)                       : 2 channels\nSampling rate                    : 48.0 KHz\nStream size                      : 65.7 MiB (5%)\nWriting library                  : LAME3.98\n\n******************************************************************\n\nThe Tramp finds work and the girl of his dreams at a circus. \n\n &lt;a href=&quot;\nhttp://en.wikipedia.org/wiki/The_Circus_%28film%29&quot; rel=&quot;nofollow&quot; target=&quot;_NEW&quot;&gt;\nhttp://en.wikipedia.org/wiki/The_Circus_%28film%29&lt;/a&gt;\n\n\n*******************************************************************","torrent":{"xt":"urn:btih:7c484a2da6c69092b89ce2584dcfa892d8370e92","amp;dn":"The.Circus.1928.DVDRiP.XViD.OPTIONAL-SWESUB-Zen_Bud","amp;tr":["udp%3A%2F%2Ftracker.openbittorrent.com%3A80","udp%3A%2F%2Fopen.demonii.com%3A1337","udp%3A%2F%2Ftracker.coppersurfer.tk%3A6969","udp%3A%2F%2Fexodus.desync.com%3A6969"],"infoHash":"7c484a2da6c69092b89ce2584dcfa892d8370e92","infoHashBuffer":{"type":"Buffer","data":[124,72,74,45,166,198,144,146,184,156,226,88,77,207,168,146,216,55,14,146]},"announce":[],"urlList":[]}}